<svg width="24" height="24" viewBox="0 0 24 24" fill="none" xmlns="http://www.w3.org/2000/svg">
<path d="M12 3.8C16.5213 3.8 20.2 7.47873 20.2 12C20.2 16.5213 16.5213 20.2 12 20.2C7.47873 20.2 3.8 16.5213 3.8 12C3.8 7.47873 7.47873 3.8 12 3.8ZM12 1.75C6.33893 1.75 1.75 6.33893 1.75 12C1.75 17.6611 6.33893 22.25 12 22.25C17.6611 22.25 22.25 17.6611 22.25 12C22.25 6.33893 17.6611 1.75 12 1.75ZM17.125 10.975H13.025V6.875H10.975V10.975H6.875V13.025H10.975V17.125H13.025V13.025H17.125V10.975Z" fill="#B3B3B3"/>
</svg>
