<svg width="24" height="24" viewBox="0 0 24 24" fill="none" xmlns="http://www.w3.org/2000/svg">
<path fill-rule="evenodd" clip-rule="evenodd" d="M12 22.25C13.346 22.25 14.6789 21.9849 15.9225 21.4698C17.1661 20.9547 18.296 20.1996 19.2478 19.2478C20.1996 18.296 20.9547 17.1661 21.4698 15.9225C21.9849 14.6789 22.25 13.346 22.25 12C22.25 10.654 21.9849 9.32108 21.4698 8.07749C20.9547 6.83391 20.1996 5.70396 19.2478 4.75216C18.296 3.80035 17.1661 3.04535 15.9225 2.53023C14.6789 2.01512 13.346 1.75 12 1.75C9.28153 1.75 6.6744 2.82991 4.75216 4.75216C2.82991 6.6744 1.75 9.28153 1.75 12C1.75 14.7185 2.82991 17.3256 4.75216 19.2478C6.6744 21.1701 9.28153 22.25 12 22.25ZM11.7358 16.1456L17.4302 9.31222L15.6809 7.85444L10.7837 13.73L8.24964 11.1948L6.63925 12.8052L10.0559 16.2219L10.9374 17.1034L11.7358 16.1456Z" fill="#B3B3B3"/>
</svg>
