<svg width="24" height="24" viewBox="0 0 24 24" fill="none" xmlns="http://www.w3.org/2000/svg">
<path d="M3.64286 14.7857C2.87679 14.7857 2.25 15.4125 2.25 16.1786V20.3571C2.25 21.1232 2.87679 21.75 3.64286 21.75H7.82143C8.5875 21.75 9.21429 21.1232 9.21429 20.3571C9.21429 19.5911 8.5875 18.9643 7.82143 18.9643H5.03571V16.1786C5.03571 15.4125 4.40893 14.7857 3.64286 14.7857ZM3.64286 9.21429C4.40893 9.21429 5.03571 8.5875 5.03571 7.82143V5.03571H7.82143C8.5875 5.03571 9.21429 4.40893 9.21429 3.64286C9.21429 2.87679 8.5875 2.25 7.82143 2.25H3.64286C2.87679 2.25 2.25 2.87679 2.25 3.64286V7.82143C2.25 8.5875 2.87679 9.21429 3.64286 9.21429ZM18.9643 18.9643H16.1786C15.4125 18.9643 14.7857 19.5911 14.7857 20.3571C14.7857 21.1232 15.4125 21.75 16.1786 21.75H20.3571C21.1232 21.75 21.75 21.1232 21.75 20.3571V16.1786C21.75 15.4125 21.1232 14.7857 20.3571 14.7857C19.5911 14.7857 18.9643 15.4125 18.9643 16.1786V18.9643ZM14.7857 3.64286C14.7857 4.40893 15.4125 5.03571 16.1786 5.03571H18.9643V7.82143C18.9643 8.5875 19.5911 9.21429 20.3571 9.21429C21.1232 9.21429 21.75 8.5875 21.75 7.82143V3.64286C21.75 2.87679 21.1232 2.25 20.3571 2.25H16.1786C15.4125 2.25 14.7857 2.87679 14.7857 3.64286Z" fill="#B3B3B3" stroke="#B3B3B3" stroke-width="0.2"/>
</svg>
