<svg width="24" height="24" viewBox="0 0 24 24" fill="none" xmlns="http://www.w3.org/2000/svg">
<path d="M12 21.5C9.78333 21.5 7.82176 20.8273 6.11528 19.4818C4.4088 18.1363 3.30046 16.4164 2.79028 14.3222C2.71991 14.0583 2.77269 13.8166 2.94861 13.5971C3.12454 13.3775 3.36204 13.2498 3.66111 13.2139C3.94259 13.1787 4.19768 13.2315 4.42639 13.3722C4.65509 13.513 4.81343 13.7241 4.90139 14.0056C5.32361 15.5889 6.19444 16.8819 7.51389 17.8847C8.83333 18.8875 10.3287 19.3889 12 19.3889C14.0583 19.3889 15.8046 18.6722 17.2387 17.2387C18.6729 15.8053 19.3896 14.059 19.3889 12C19.3882 9.94096 18.6715 8.19507 17.2387 6.76233C15.806 5.32959 14.0597 4.61252 12 4.61111C10.7861 4.61111 9.65139 4.89259 8.59583 5.45555C7.54028 6.01852 6.65185 6.79259 5.93056 7.77778H7.77778C8.07685 7.77778 8.32772 7.87911 8.53039 8.08178C8.73306 8.28444 8.83404 8.53496 8.83333 8.83333C8.83263 9.1317 8.7313 9.38257 8.52933 9.58594C8.32737 9.78931 8.07685 9.89029 7.77778 9.88889H3.55556C3.25648 9.88889 3.00596 9.78755 2.804 9.58489C2.60204 9.38222 2.5007 9.1317 2.5 8.83333V4.61111C2.5 4.31204 2.60133 4.06152 2.804 3.85956C3.00667 3.65759 3.25719 3.55626 3.55556 3.55556C3.85393 3.55485 4.1048 3.65618 4.30817 3.85956C4.51154 4.06293 4.61252 4.31344 4.61111 4.61111V6.03611C5.50833 4.91018 6.60365 4.03935 7.89705 3.42361C9.19046 2.80787 10.5581 2.5 12 2.5C13.3194 2.5 14.5555 2.75087 15.7082 3.25261C16.8608 3.75435 17.8636 4.43131 18.7165 5.2835C19.5694 6.13568 20.2467 7.13846 20.7484 8.29183C21.2502 9.4452 21.5007 10.6813 21.5 12C21.4993 13.3187 21.2488 14.5548 20.7484 15.7082C20.2481 16.8615 19.5708 17.8643 18.7165 18.7165C17.8622 19.5687 16.8594 20.246 15.7082 20.7484C14.5569 21.2509 13.3209 21.5014 12 21.5ZM13.0556 11.5778L15.6944 14.2167C15.888 14.4102 15.9847 14.6565 15.9847 14.9556C15.9847 15.2546 15.888 15.5009 15.6944 15.6944C15.5009 15.888 15.2546 15.9847 14.9556 15.9847C14.6565 15.9847 14.4102 15.888 14.2167 15.6944L11.2611 12.7389C11.1556 12.6333 11.0764 12.5148 11.0236 12.3832C10.9708 12.2516 10.9444 12.1151 10.9444 11.9736V7.77778C10.9444 7.4787 11.0458 7.22818 11.2484 7.02622C11.4511 6.82426 11.7016 6.72292 12 6.72222C12.2984 6.72152 12.5492 6.82285 12.7526 7.02622C12.956 7.22959 13.057 7.48011 13.0556 7.77778V11.5778Z" fill="#B3B3B3"/>
</svg>
