<svg width="24" height="24" viewBox="0 0 24 24" fill="none" xmlns="http://www.w3.org/2000/svg">
<path opacity="0.4" d="M8.51015 1.91614H15.4901C15.723 1.91614 15.9 1.91614 16.057 1.93114C17.165 2.04014 18.071 2.70613 18.456 3.60312H5.54419C5.92918 2.70613 6.83617 2.04014 7.94416 1.93114C8.09915 1.91614 8.27815 1.91614 8.51015 1.91614Z" fill="#B3B3B3"/>
<path opacity="0.7" d="M6.224 4.60312C4.83402 4.60312 3.69403 5.44311 3.31404 6.55609L3.29004 6.62609C3.69342 6.50956 4.10536 6.42497 4.52202 6.3731C5.60201 6.2351 6.96799 6.2351 8.55397 6.2351H15.4459C17.0318 6.2351 18.3978 6.2351 19.4778 6.3731C19.8978 6.4271 20.3118 6.5061 20.7098 6.62609L20.6868 6.55609C20.3068 5.44211 19.1668 4.60312 17.7758 4.60312H6.224Z" fill="#B3B3B3"/>
<path fill-rule="evenodd" clip-rule="evenodd" d="M8.67224 7.62604H15.3281C18.7021 7.62604 20.3901 7.62604 21.3381 8.61303C22.286 9.60001 22.0621 11.124 21.6161 14.173L21.1941 17.0649C20.8441 19.4559 20.6691 20.6519 19.7721 21.3679C18.8751 22.0839 17.5521 22.0839 14.9052 22.0839H9.09523C6.44927 22.0839 5.12529 22.0839 4.2283 21.3679C3.33131 20.6519 3.15631 19.4559 2.80632 17.0649L2.38432 14.173C1.93733 11.124 1.71433 9.60001 2.66232 8.61303C3.61031 7.62604 5.29828 7.62604 8.67224 7.62604ZM8.00025 18.0839C8.00025 17.6699 8.37324 17.3339 8.83323 17.3339H15.1671C15.6271 17.3339 16.0001 17.6699 16.0001 18.0839C16.0001 18.4979 15.6271 18.8339 15.1671 18.8339H8.83323C8.37324 18.8339 8.00025 18.4979 8.00025 18.0839Z" fill="#B3B3B3"/>
</svg>
