<svg width="24" height="24" viewBox="0 0 24 24" fill="none" xmlns="http://www.w3.org/2000/svg">
<path d="M16.3636 20.5C15.9738 20.5 15.6339 20.3588 15.344 20.0764C15.0541 19.794 14.9091 19.463 14.9091 19.0833V4.91667C14.9091 4.537 15.0541 4.20597 15.344 3.92358C15.6339 3.64119 15.9738 3.5 16.3636 3.5H18.5455C18.9353 3.5 19.2752 3.64119 19.5651 3.92358C19.855 4.20597 20 4.537 20 4.91667V19.0833C20 19.463 19.855 19.794 19.5651 20.0764C19.2752 20.3588 18.9353 20.5 18.5455 20.5H16.3636ZM5.45455 20.5C5.06473 20.5 4.72485 20.3588 4.43491 20.0764C4.14497 19.794 4 19.463 4 19.0833V4.91667C4 4.537 4.14497 4.20597 4.43491 3.92358C4.72485 3.64119 5.06473 3.5 5.45455 3.5H7.63636C8.02618 3.5 8.36606 3.64119 8.656 3.92358C8.94594 4.20597 9.09091 4.537 9.09091 4.91667V19.0833C9.09091 19.463 8.94594 19.794 8.656 20.0764C8.36606 20.3588 8.02618 20.5 7.63636 20.5H5.45455Z" fill="#B3B3B3"/>
</svg>
