<svg width="24" height="24" viewBox="0 0 24 24" fill="none" xmlns="http://www.w3.org/2000/svg">
<path d="M14.85 12C14.85 10.426 13.574 9.15001 12 9.15001C10.426 9.15001 9.15002 10.426 9.15002 12C9.15002 13.574 10.426 14.85 12 14.85C13.574 14.85 14.85 13.574 14.85 12Z" stroke="#B3B3B3" stroke-width="1.75"/>
<path d="M2.6444 10.3233C2.5 10.6719 2.5 11.1146 2.5 12C2.5 12.8854 2.5 13.3281 2.6444 13.6768C2.73989 13.9074 2.8799 14.117 3.05644 14.2936C3.23297 14.4701 3.44257 14.6101 3.67325 14.7056C3.8851 14.793 4.13305 14.8282 4.4931 14.8415C4.75333 14.8476 5.00774 14.9197 5.23254 15.051C5.45733 15.1822 5.64516 15.3684 5.77845 15.592C5.90553 15.8192 5.97289 16.075 5.97422 16.3353C5.97555 16.5957 5.91081 16.8521 5.78605 17.0806C5.61695 17.3998 5.52385 17.6307 5.49345 17.8596C5.42778 18.359 5.56309 18.864 5.86965 19.2637C6.1005 19.562 6.48335 19.7843 7.25 20.227C8.01665 20.6697 8.3995 20.892 8.77475 20.9405C9.02218 20.9731 9.27362 20.9567 9.5147 20.8921C9.75578 20.8276 9.98179 20.7162 10.1798 20.5643C10.3622 20.4237 10.5151 20.227 10.707 19.9221C10.9892 19.4727 11.4699 19.1839 12 19.1839C12.5301 19.1839 13.0108 19.4727 13.292 19.9221C13.4848 20.227 13.6378 20.4246 13.8202 20.5643C14.0182 20.7162 14.2442 20.8276 14.4853 20.8921C14.7264 20.9567 14.9778 20.9731 15.2253 20.9405C15.5996 20.8911 15.9833 20.6697 16.75 20.228C17.5166 19.7843 17.8995 19.563 18.1303 19.2637C18.2823 19.0657 18.3937 18.8397 18.4582 18.5986C18.5228 18.3575 18.5392 18.1061 18.5066 17.8587C18.4762 17.6307 18.3831 17.3998 18.214 17.0806C18.0892 16.8521 18.0245 16.5957 18.0258 16.3353C18.0271 16.075 18.0945 15.8192 18.2215 15.592C18.4875 15.1331 18.9768 14.8605 19.5069 14.8415C19.8679 14.8282 20.1149 14.794 20.3267 14.7056C20.5574 14.6101 20.767 14.4701 20.9436 14.2936C21.1201 14.117 21.2601 13.9074 21.3556 13.6768C21.5 13.3281 21.5 12.8854 21.5 12C21.5 11.1146 21.5 10.6719 21.3556 10.3233C21.2601 10.0926 21.1201 9.88299 20.9436 9.70645C20.767 9.52991 20.5574 9.3899 20.3267 9.29441C20.1149 9.20701 19.8679 9.17186 19.5069 9.15856C18.9768 9.13956 18.4866 8.86691 18.2215 8.40806C18.0945 8.18083 18.0271 7.92507 18.0258 7.66472C18.0245 7.40436 18.0892 7.14793 18.214 6.91941C18.3831 6.60021 18.4762 6.36936 18.5066 6.14136C18.5392 5.89393 18.5228 5.64249 18.4582 5.40141C18.3937 5.16033 18.2823 4.93433 18.1303 4.73631C17.9004 4.43706 17.5166 4.21571 16.75 3.77301C15.9833 3.33031 15.6005 3.10801 15.2253 3.05956C14.9778 3.02691 14.7264 3.04333 14.4853 3.10788C14.2442 3.17243 14.0182 3.28385 13.8202 3.43576C13.6378 3.57636 13.4848 3.77301 13.2929 4.07796C13.1575 4.30033 12.9678 4.48469 12.7417 4.61379C12.5155 4.74288 12.2604 4.8125 12 4.81611C11.4699 4.81611 10.9892 4.52731 10.708 4.07796C10.5152 3.77301 10.3622 3.57541 10.1798 3.43576C9.98179 3.28385 9.75578 3.17243 9.5147 3.10788C9.27362 3.04333 9.02218 3.02691 8.77475 3.05956C8.40045 3.10896 8.01665 3.33031 7.25 3.77206C6.48335 4.21571 6.1005 4.43706 5.86965 4.73631C5.71774 4.93433 5.60632 5.16033 5.54177 5.40141C5.47722 5.64249 5.4608 5.89393 5.49345 6.14136C5.52385 6.36936 5.61695 6.60021 5.78605 6.92036C5.91064 7.14876 5.97529 7.40502 5.97396 7.66519C5.97263 7.92536 5.90536 8.18094 5.77845 8.40806C5.64516 8.63165 5.45733 8.81778 5.23254 8.94903C5.00774 9.08028 4.75333 9.15238 4.4931 9.15856C4.1321 9.17186 3.8851 9.20606 3.67325 9.29441C3.44257 9.3899 3.23297 9.52991 3.05644 9.70645C2.8799 9.88299 2.73989 10.0926 2.6444 10.3233Z" stroke="#B3B3B3" stroke-width="1.9"/>
</svg>
