<svg width="24" height="24" viewBox="0 0 24 24" fill="none" xmlns="http://www.w3.org/2000/svg">
<path d="M18.5769 19.0833V4.91667C18.5769 4.51528 18.7172 4.17906 18.9978 3.908C19.2784 3.63695 19.6253 3.50095 20.0384 3.5C20.4516 3.49906 20.7989 3.63506 21.0805 3.908C21.3621 4.18095 21.5019 4.51717 21.5 4.91667V19.0833C21.5 19.4847 21.3597 19.8214 21.0791 20.0934C20.7984 20.3654 20.4516 20.5009 20.0384 20.5C19.6253 20.4991 19.2784 20.3631 18.9978 20.092C18.7172 19.8209 18.5769 19.4847 18.5769 19.0833ZM2.5 17.8437V6.15625C2.5 5.73125 2.64615 5.38889 2.93846 5.12917C3.23077 4.86945 3.57179 4.73959 3.96154 4.73959C4.08333 4.73959 4.21731 4.75139 4.36346 4.775C4.50961 4.79862 4.64359 4.85764 4.76538 4.95209L13.8269 10.8313C14.0461 10.9729 14.2108 11.1443 14.3209 11.3455C14.431 11.5467 14.4856 11.7648 14.4846 12C14.4836 12.2352 14.4291 12.4538 14.3209 12.6559C14.2128 12.858 14.0481 13.029 13.8269 13.1687L4.76538 19.0479C4.64359 19.1424 4.50961 19.2014 4.36346 19.225C4.21731 19.2486 4.08333 19.2604 3.96154 19.2604C3.57179 19.2604 3.23077 19.1306 2.93846 18.8708C2.64615 18.6111 2.5 18.2687 2.5 17.8437Z" fill="#B3B3B3"/>
</svg>
