<svg width="24" height="24" viewBox="0 0 24 24" fill="none" xmlns="http://www.w3.org/2000/svg">
<path d="M18.195 10.845C14.835 8.85 9.2175 8.64 6.015 9.6375C5.49 9.795 4.965 9.48 4.8075 9.0075C4.65 8.4825 4.965 7.9575 5.4375 7.8C9.165 6.6975 15.3075 6.9075 19.1925 9.2175C19.665 9.48 19.8225 10.11 19.56 10.5825C19.2975 10.95 18.6675 11.1075 18.195 10.845ZM18.09 13.785C17.8275 14.1525 17.355 14.31 16.9875 14.0475C14.1525 12.315 9.8475 11.79 6.54 12.84C6.12 12.945 5.6475 12.735 5.5425 12.315C5.4375 11.895 5.6475 11.4225 6.0675 11.3175C9.9 10.1625 14.625 10.74 17.88 12.735C18.195 12.8925 18.3525 13.4175 18.09 13.785ZM16.83 16.6725C16.62 16.9875 16.2525 17.0925 15.9375 16.8825C13.47 15.36 10.3725 15.045 6.6975 15.885C6.33 15.99 6.015 15.7275 5.91 15.4125C5.805 15.045 6.0675 14.73 6.3825 14.625C10.3725 13.7325 13.8375 14.1 16.5675 15.78C16.935 15.9375 16.9875 16.3575 16.83 16.6725ZM12 1.5C10.6211 1.5 9.25574 1.77159 7.98182 2.29926C6.7079 2.82694 5.55039 3.60036 4.57538 4.57538C2.60625 6.54451 1.5 9.21523 1.5 12C1.5 14.7848 2.60625 17.4555 4.57538 19.4246C5.55039 20.3996 6.7079 21.1731 7.98182 21.7007C9.25574 22.2284 10.6211 22.5 12 22.5C14.7848 22.5 17.4555 21.3938 19.4246 19.4246C21.3938 17.4555 22.5 14.7848 22.5 12C22.5 10.6211 22.2284 9.25574 21.7007 7.98182C21.1731 6.7079 20.3996 5.55039 19.4246 4.57538C18.4496 3.60036 17.2921 2.82694 16.0182 2.29926C14.7443 1.77159 13.3789 1.5 12 1.5Z" fill="#B3B3B3"/>
</svg>
