<svg width="24" height="24" viewBox="0 0 24 24" fill="none" xmlns="http://www.w3.org/2000/svg">
<path d="M6.72502 21.1245C6.37026 21.1245 6.0731 21.0043 5.83353 20.7639C5.59397 20.5235 5.47377 20.2264 5.47294 19.8725C5.4721 19.5185 5.5923 19.2214 5.83353 18.981C6.07477 18.7406 6.37193 18.6204 6.72502 18.6204H14.3627C15.6774 18.6204 16.8201 18.203 17.7909 17.3683C18.7617 16.5336 19.2467 15.4902 19.2458 14.2381C19.245 12.986 18.76 11.9426 17.7909 11.1079C16.8218 10.2732 15.6791 9.85581 14.3627 9.85581H6.4746L8.85356 12.2348C9.0831 12.4643 9.19788 12.7565 9.19788 13.1112C9.19788 13.466 9.0831 13.7581 8.85356 13.9877C8.62401 14.2172 8.33186 14.332 7.9771 14.332C7.62234 14.332 7.33019 14.2172 7.10064 13.9877L2.59315 9.48019C2.46794 9.35498 2.37904 9.21934 2.32645 9.07326C2.27387 8.92719 2.24841 8.77068 2.25008 8.60373C2.25175 8.43679 2.27804 8.28028 2.32896 8.1342C2.37988 7.98812 2.46794 7.85248 2.59315 7.72727L7.10064 3.21978C7.33019 2.99023 7.62234 2.87546 7.9771 2.87546C8.33186 2.87546 8.62401 2.99023 8.85356 3.21978C9.0831 3.44933 9.19788 3.74148 9.19788 4.09624C9.19788 4.45099 9.0831 4.74315 8.85356 4.97269L6.4746 7.35165H14.3627C16.3869 7.35165 18.1244 8.00899 19.5751 9.32368C21.0259 10.6384 21.7508 12.2765 21.75 14.2381C21.7492 16.1997 21.0242 17.8378 19.5751 19.1525C18.1261 20.4672 16.3886 21.1245 14.3627 21.1245H6.72502Z" fill="#B3B3B3"/>
</svg>
