<svg width="24" height="24" viewBox="0 0 24 24" fill="none" xmlns="http://www.w3.org/2000/svg">
<path d="M22.7516 14.4611C22.9016 14.6424 22.9833 14.8822 22.9794 15.1299C22.9755 15.3777 22.8864 15.6141 22.7308 15.7893C22.5752 15.9645 22.3653 16.0649 22.1453 16.0693C21.9253 16.0737 21.7124 15.9817 21.5514 15.8128L19.3774 13.3644L17.192 15.8128C17.1153 15.9046 17.0221 15.9771 16.9187 16.0255C16.8152 16.0738 16.7038 16.0969 16.5919 16.0933C16.4803 16.0939 16.3698 16.0694 16.2667 16.0212C16.1636 15.973 16.0702 15.9022 15.9918 15.8128C15.8327 15.6334 15.7434 15.3904 15.7434 15.1369C15.7434 14.8835 15.8327 14.6404 15.9918 14.4611L18.1658 12.0128L15.9918 9.56443C15.8327 9.38511 15.7434 9.14203 15.7434 8.88859C15.7434 8.63515 15.8327 8.39207 15.9918 8.21275C16.0698 8.12252 16.1632 8.05081 16.2662 8.00185C16.3693 7.95289 16.48 7.92766 16.5919 7.92766C16.7038 7.92766 16.8145 7.95289 16.9176 8.00185C17.0206 8.05081 17.1139 8.12252 17.192 8.21275L19.3774 10.6611L21.5514 8.21275C21.6295 8.12252 21.7228 8.05081 21.8259 8.00185C21.9289 7.95289 22.0397 7.92766 22.1515 7.92766C22.2634 7.92766 22.3741 7.95289 22.4772 8.00185C22.5803 8.05081 22.6736 8.12252 22.7516 8.21275C22.9107 8.39207 23 8.63515 23 8.88859C23 9.14203 22.9107 9.38511 22.7516 9.56443L20.5776 12.0128L22.7516 14.4611ZM13.931 5.44564V18.5544C13.9332 19.0453 13.8325 19.5311 13.6366 19.9698C13.4472 20.4116 13.1583 20.7897 12.7987 21.0664C12.4334 21.343 12.0045 21.4936 11.5644 21.5C11.1322 21.5 10.71 21.3533 10.3529 21.0792L5.82365 17.7255C5.73112 17.6627 5.62589 17.6276 5.51793 17.6235H3.37787C3.049 17.6204 2.72467 17.5366 2.42745 17.3781C2.13022 17.2195 1.86723 16.99 1.65676 16.7054C1.23014 16.1344 0.997404 15.4113 1.00002 14.6651V9.3349C0.998117 8.59266 1.23093 7.87391 1.65676 7.30738C1.86723 7.02278 2.13022 6.79323 2.42745 6.63467C2.72467 6.47612 3.049 6.39237 3.37787 6.38926H5.51793C5.62755 6.38517 5.73377 6.3453 5.82365 6.2745L10.3529 2.92081C10.7162 2.65115 11.1407 2.50506 11.5758 2.5C12.012 2.50885 12.4366 2.6594 12.7987 2.93356C13.1587 3.21027 13.4475 3.58899 13.6366 4.0302C13.8313 4.47013 13.9321 4.9547 13.931 5.44564Z" fill="#B3B3B3"/>
</svg>
