<svg width="24" height="24" viewBox="0 0 24 24" fill="none" xmlns="http://www.w3.org/2000/svg">
<path d="M13.9302 5.44564V18.5544C13.9302 19.0453 13.8283 19.5299 13.6358 19.9698C13.4465 20.4116 13.1576 20.7897 12.798 21.0664C12.4327 21.343 12.0039 21.4936 11.5638 21.5C11.1281 21.5002 10.7022 21.3536 10.341 21.0792L5.81204 17.7255C5.72417 17.6615 5.62227 17.6262 5.51766 17.6235H3.37773C3.04887 17.6204 2.72457 17.5366 2.42736 17.3781C2.13016 17.2195 1.86718 16.99 1.65672 16.7054C1.23013 16.1344 0.997404 15.4113 1.00002 14.6651V9.3349C0.998118 8.59266 1.23092 7.87391 1.65672 7.30738C1.86718 7.02278 2.13016 6.79323 2.42736 6.63467C2.72457 6.47612 3.04887 6.39237 3.37773 6.38926H5.56295C5.66959 6.38835 5.77301 6.34803 5.85733 6.2745L10.3863 2.92081C10.7664 2.68331 11.1872 2.53985 11.6204 2.5C12.0605 2.50639 12.4893 2.65705 12.8546 2.93356C13.2124 3.21027 13.5022 3.58899 13.6924 4.0302C13.8657 4.47651 13.9461 4.9598 13.9302 5.44564ZM16.8854 17.8339C16.6614 17.8272 16.4476 17.7272 16.2853 17.5534C16.1262 17.374 16.0369 17.131 16.0369 16.8775C16.0369 16.6241 16.1262 16.381 16.2853 16.2017C16.7693 15.658 17.1534 15.012 17.4154 14.3009C17.6775 13.5897 17.8124 12.8273 17.8124 12.0574C17.8124 11.2874 17.6775 10.525 17.4154 9.81388C17.1534 9.10273 16.7693 8.45679 16.2853 7.91309C16.1831 7.83442 16.0974 7.73154 16.0342 7.61166C15.971 7.49178 15.9319 7.3578 15.9195 7.21909C15.9072 7.08038 15.9219 6.9403 15.9626 6.80867C16.0034 6.67704 16.0692 6.55703 16.1554 6.45705C16.2417 6.35707 16.3463 6.27954 16.462 6.22988C16.5776 6.18023 16.7016 6.15965 16.825 6.16959C16.9485 6.17953 17.0685 6.21975 17.1767 6.28744C17.2849 6.35512 17.3787 6.44863 17.4515 6.56141C18.0944 7.28184 18.6045 8.13825 18.9527 9.08143C19.3008 10.0246 19.48 11.036 19.48 12.0574C19.48 13.0788 19.3008 14.0902 18.9527 15.0333C18.6045 15.9765 18.0944 16.8329 17.4515 17.5534C17.2978 17.7188 17.0974 17.8181 16.8854 17.8339Z" fill="#B3B3B3"/>
</svg>
